<?xml version="1.0" encoding="utf-8"?>
<!-- Generator: Adobe Illustrator 27.0.1, SVG Export Plug-In . SVG Version: 6.00 Build 0)  -->
<svg version="1.1" id="Layer_1" xmlns="http://www.w3.org/2000/svg" x="0px"
     y="0px"
     viewBox="0 0 1980.66 1900.02" style="enable-background:new 0 0 1980.66 1900.02;" xml:space="preserve">
<style type="text/css">
	.st0{fill:#09C8E9;}
	.st1{fill:#006AE9;}
	.st2{fill:#FFBC96;}
	.st3{fill:#FFA631;}
	.st4{fill:#D1D1FF;}
	.st5{fill:#FFA121;}
	.st6{fill:#FFFFFF;}
	.st7{fill:#3335CF;}
	.st8{fill:#1B1B43;}
	.st9{fill:#D28572;}
	.st10{fill:#26289C;}
	.st11{fill:#C5C5FF;}
</style>
    <path class="st0" d="M1769.24,926.39c14.69-53.29-26.4-114.52-82.8-123.35c-37.49-34.45-93.69-48.69-143.8-36.44
	c-50.11,12.25-92.44,50.61-108.32,98.13c-15.05-29.33-47.29-49.71-81.12-51.24c-33.83-1.55-67.85,15.8-85.6,43.64
	c0.96-31.11-16.27-62.19-43.6-78.69c-27.33-16.51-63.77-17.81-92.27-3.33c12.47-22.36,13.08-50.51,1.63-73.39
	c-11.45-22.89-34.69-39.92-60.57-44.41c11.68-17.68,12.43-41.61,1.87-59.99c-10.56-18.37-31.97-30.43-53.72-30.23
	c-17.88-35.65-59.56-58.77-100.41-55.69c-12.97,0.98-25.59,4.58-37.16,10.25v163.21c9.22-4.54,19.29-7.43,29.64-8.21
	c32.46-2.45,65.57,15.92,79.78,44.25c17.28-0.16,34.29,9.42,42.68,24.01c8.39,14.6,7.8,33.61-1.48,47.66
	c20.56,3.57,39.03,17.1,48.13,35.29c9.1,18.18,8.61,40.54-1.29,58.31c22.64-11.5,51.59-10.47,73.31,2.65
	c21.72,13.11,35.4,37.81,34.64,62.52c14.1-22.12,41.13-35.9,68.01-34.67c26.87,1.22,52.49,17.4,64.45,40.71
	c12.62-37.75,46.25-68.23,86.06-77.97c39.81-9.73,84.46,1.58,114.25,28.95c44.81,7.01,77.46,55.66,65.78,98
	c12.93,10.7,22.48,24.98,27.8,40.59h189.74c1.77-5.27,3.15-10.66,4.06-16.15C1815.28,992.59,1799.71,951.6,1769.24,926.39z"/>
    <path class="st1" d="M960.5,1046.95h654.62c-5.32-15.61-14.87-29.89-27.8-40.59c11.67-42.34-20.97-90.98-65.78-98
	c-29.79-27.37-74.44-38.69-114.25-28.95c-39.81,9.74-73.44,40.21-86.06,77.97c-11.96-23.31-37.57-39.49-64.45-40.71
	c-26.88-1.23-53.91,12.55-68.01,34.67c0.76-24.71-12.92-49.41-34.64-62.52c-21.72-13.11-50.67-14.15-73.31-2.65
	c9.9-17.76,10.39-40.13,1.29-58.31c-9.1-18.19-27.56-31.72-48.13-35.29c9.28-14.05,9.87-33.06,1.48-47.66
	c-8.39-14.6-25.4-24.17-42.68-24.01c-14.21-28.33-47.32-46.7-79.78-44.25c-10.35,0.78-20.42,3.67-29.64,8.21V969.8
	C883.37,1012.4,917.91,1046.95,960.5,1046.95z"/>
    <g>
	<path class="st0" d="M1098.6,1526.94H456.78l-0.15-1.33c-0.13-1.1-0.13-2.09-0.13-3.15c0-54.79,72.17-99.37,160.88-99.37
		c33.92,0,66.32,6.44,93.85,18.65c1.56-18.52,7.36-36.97,16.82-53.48c17.01-29.61,43.98-50.63,75.93-59.2
		c29.34-7.87,59.58-4.04,85.15,10.78c34.65,20.12,55.94,58.33,55.98,100.17c14.81-7.19,31.42-10.98,48.19-10.98
		c27.53,0,53.58,9.98,73.34,28.09c19.75,18.1,31.08,42.34,31.9,68.26L1098.6,1526.94z M459.52,1523.94h635.97
		c-1.19-24.52-12.11-47.4-30.87-64.59c-19.21-17.61-44.53-27.3-71.31-27.3c-17.14,0-34.09,4.06-49.02,11.75l-2.23,1.15l0.05-2.51
		c0.79-41.71-20.08-80.02-54.47-99.98c-24.88-14.42-54.31-18.14-82.87-10.48c-31.18,8.36-57.5,28.89-74.1,57.79
		c-9.6,16.75-15.34,35.54-16.6,54.33l-0.14,2.17l-1.98-0.9c-27.56-12.6-60.26-19.26-94.56-19.26c-87.05,0-157.88,43.23-157.88,96.37
		C459.5,1522.97,459.5,1523.46,459.52,1523.94z"/>
</g>
    <path class="st2" d="M759.03,1095.98c-2.94,5.81-25.49-4.47-36-9.63c8.14,4.51,22.17,13.37,15.94,18.23
	c-5.01,3.87-16.09-4.36-52.4-19.41c5.5,2.6,37.95,18.04,29.77,23.88c-8.91,6.35-47.12-7.64-47.12-7.64l-33.14,17.81h-38.22
	l-137.52,0.88c-8.64,0.04-17.2-1.07-25.49-3.21c-16.32-4.16-31.68-12.27-44.72-23.16c-8.22-6.88-15.29-14.95-21.21-23.81
	c-4.43-6.65-8.22-13.8-11.35-21.25l-36.27-85.91l95.51-44.08l49.84,101.17l164.35,35.69l45.86-11.47c9.86-2.48,23.81,1.69,32.49,7
	C730.52,1064.03,761.78,1090.43,759.03,1095.98"/>
    <path class="st3" d="M194.85,1193.74l-25.29-3.28c-47.86-6.21-81.16-49.43-73.89-95.88l28.71-183.39
	c6.42-41.02,42.66-71.32,85.3-71.32h137.76c33.52,0,64.01,18.89,78.18,48.46l13.2,27.53c14,29.2,9.6,63.62-11.32,88.59l0,0
	c-12.56,14.99-19.42,33.73-19.42,53.07v53.01c0,46.38-38.63,83.97-86.28,83.97H206.26C202.45,1194.47,198.64,1194.23,194.85,1193.74
	z"/>
    <path d="M-186.34-151.98"/>
    <path class="st0" d="M905.17,169.09c0,0.69,0,1.35,0.08,2.04h438.36c-1.15-36.13-32.6-65.11-71.17-65.11
	c-12.37,0-23.97,2.96-34.11,8.17c0.53-28.12-12.99-55.05-37.88-69.51c-37.36-21.65-86.24-6.96-109.11,32.84
	c-6.88,12-10.67,24.91-11.52,37.72c-18.23-8.33-40.81-13.31-65.31-13.31C954.12,101.95,905.17,132.03,905.17,169.09"/>
    <path class="st4" d="M882.71,1048.2"/>
    <path class="st4" d="M882.71,1048.2"/>
    <path class="st4" d="M882.71,1048.2"/>
    <path class="st3" d="M1599.21,469.91c-45.65,54.01-114.51,105.68-195.72,175.47l110.81-45.16c-13.59,22.51-33.37,54.03-44.47,67.53
	c25.53-11.79,66.63-37.72,80.24-51.48c0,19.2-23.12,51.29-33.2,68.83c59.11-50.59,112.88-112.35,130.24-166.59L1599.21,469.91"/>
    <path class="st5" d="M882.71,1048.2"/>
    <path class="st0" d="M1192.84,656.1c0.36,8.36,0,22.45-8.35,27.28c-13.92,8.05-24.87-11.52-29.99-21.35
	c-6.09-11.76-4.53-26.33,9.25-31.56C1181.97,623.55,1192.17,640.52,1192.84,656.1 M1853,909.58c0.36,8.35,0,22.44-8.35,27.28
	c-13.92,8.05-24.87-11.52-29.99-21.36c-6.09-11.75-4.53-26.32,9.25-31.56C1842.13,877.03,1852.33,894,1853,909.58 M1130.52,561.66
	c0,6.45-5.23,11.67-11.67,11.67s-11.67-5.21-11.67-11.67c0-6.44,5.23-11.67,11.67-11.67S1130.52,555.22,1130.52,561.66
	 M1729.94,772.22c0,9.81-7.95,17.76-17.76,17.76c-9.81,0-17.76-7.95-17.76-17.76c0-9.81,7.95-17.76,17.76-17.76
	C1722,754.46,1729.94,762.4,1729.94,772.22"/>
    <path class="st0" d="M884.38,451.46v519.61c0,41.61,33.85,75.47,75.46,75.47h856.76c41.61,0,75.47-33.85,75.47-75.47V451.46H884.38z
	 M1816.6,1049.87H959.84c-43.44,0-78.79-35.36-78.79-78.8V448.12H1895.4v522.95C1895.4,1014.51,1860.05,1049.87,1816.6,1049.87"/>
    <path class="st6" d="M1816.6,247.83H959.84c-42.59,0-77.13,34.52-77.13,77.13v124.83h1011.02V324.96
	C1893.73,282.35,1859.2,247.83,1816.6,247.83"/>
    <path class="st0" d="M884.38,448.12h1007.69V324.96c0-41.61-33.85-75.47-75.47-75.47H959.84c-41.61,0-75.46,33.85-75.46,75.47
	L884.38,448.12L884.38,448.12z M1895.4,451.46H881.04V324.96c0-43.45,35.35-78.8,78.79-78.8h856.76c43.45,0,78.8,35.35,78.8,78.8
	L1895.4,451.46"/>
    <path class="st0" d="M1026.85,348.8c0,23.36-18.93,42.29-42.29,42.29s-42.29-18.93-42.29-42.29c0-23.35,18.93-42.28,42.29-42.28
	S1026.85,325.46,1026.85,348.8"/>
    <path class="st6" d="M1151.41,348.8c0,23.36-18.93,42.29-42.29,42.29s-42.29-18.93-42.29-42.29c0-23.35,18.93-42.28,42.29-42.28
	S1151.41,325.46,1151.41,348.8"/>
    <path class="st0" d="M1109.12,308.19c-22.4,0-40.63,18.23-40.63,40.61c0,22.4,18.23,40.63,40.63,40.63s40.61-18.23,40.61-40.63
	C1149.73,326.42,1131.52,308.19,1109.12,308.19L1109.12,308.19z M1109.12,392.76c-24.24,0-43.96-19.72-43.96-43.96
	c0-24.23,19.72-43.95,43.96-43.95s43.95,19.72,43.95,43.95C1153.06,373.04,1133.36,392.76,1109.12,392.76"/>
    <path class="st6" d="M1431.04,389.18h-168.39c-22.29,0-40.36-18.08-40.36-40.37c0-22.28,18.07-40.36,40.36-40.36h168.39
	c22.29,0,40.36,18.08,40.36,40.36C1471.4,371.1,1453.33,389.18,1431.04,389.18"/>
    <path class="st0" d="M1262.65,310.11c-21.33,0-38.69,17.36-38.69,38.69c0,21.35,17.36,38.71,38.69,38.71h168.39
	c21.33,0,38.69-17.36,38.69-38.71c0-21.33-17.36-38.69-38.69-38.69H1262.65z M1431.04,390.84h-168.39
	c-23.17,0-42.03-18.85-42.03-42.04c0-23.17,18.85-42.03,42.03-42.03h168.39c23.17,0,42.03,18.85,42.03,42.03
	C1473.06,371.99,1454.21,390.84,1431.04,390.84"/>
    <path class="st1" d="M1774.66,155.83c-67.52,59.11-183.97,18.37-220.16,65.56l103.4,81.88L1774.66,155.83"/>
    <path class="st7" d="M-186.34-151.98"/>
    <path class="st1" d="M1927.7,277.02c-42.05,79.27,24.28,183.28-13.36,229.32l-103.4-81.88L1927.7,277.02"/>
    <path class="st7" d="M-186.34-151.98"/>
    <path class="st8" d="M1980.22,54.24l-92.05,33.79l80.27,63.56L1980.22,54.24z"/>
    <path class="st0" d="M1968.44,151.59c-12.87,145.68-120.49,281.6-251.23,357.11l-119.12-94.24
	c49.99-157.28,143.08-269.81,290.08-326.43L1968.44,151.59"/>
    <path class="st1" d="M1598.09,414.46l-51.68,35.77l147.8,117.04l23-58.57L1598.09,414.46"/>
    <path class="st6" d="M1896.96,248.46c-18.96,23.95-53.73,27.99-77.67,9.03c-23.95-18.96-27.99-53.73-9.03-77.67
	s53.73-27.97,77.67-9.03C1911.88,189.75,1915.92,224.52,1896.96,248.46"/>
    <path class="st6" d="M-186.34-151.98"/>
    <path class="st8" d="M1581.17,560.9l-2.64-2.09c-3.87-3.05-4.52-8.72-1.47-12.59l103.69-130.95c3.05-3.87,8.73-4.52,12.6-1.45
	l2.63,2.08c3.87,3.07,4.53,8.73,1.47,12.6l-103.68,130.93C1590.7,563.3,1585.04,563.96,1581.17,560.9"/>
    <path class="st8" d="M-186.34-151.98"/>
    <path class="st9" d="M449.83,1030.18l-2.91-2.48l16.24-19.11l2.91,2.48L449.83,1030.18"/>
    <path class="st10"
          d="M457.84,1231.3l90.37-7.97c58.83-5.2,110,42.31,112.86,104.77l20.42,445.08l-124.66,3.88L457.84,1231.3"/>
    <path class="st8" d="M566.86,1772.63l3.82,122.95h184.73l-91.09-75.8l-5.73-59.24L566.86,1772.63"/>
    <path class="st6" d="M627.8,1852.74l-4.66-6.05l38.85-29.93l4.67,6.05L627.8,1852.74"/>
    <path class="st0" d="M524.82,1772.63l3.82,122.95h184.73l-91.09-75.8l-5.73-59.24L524.82,1772.63"/>
    <path class="st6" d="M585.75,1852.74l-4.66-6.05l38.86-29.93l4.66,6.05L585.75,1852.74"/>
    <path class="st1" d="M662.41,1784.74H509.53l-108.97-335.27l-15.25-46.93l-217.85-0.96c-13.45-0.19-26.33-6.41-37.27-15.63
	c-23.16-19.53-33.82-50.21-29.62-80.23l19.11-136.32l323.64,42.07c61.38,8,110.95,53.93,123.57,114.52L662.41,1784.74"/>
    <path class="st10" d="M430.22,1402.54l-29.66,46.93l-15.25-46.93H430.22z"/>
    <path class="st8" d="M-186.34-151.98"/>
    <path class="st8" d="M257.85,879.72c6.61,7.08,14.14,13.27,22.56,17.88c8.38,4.61,17.51,7.99,26.96,9.11
	c9.35,1.21,19.22,0.43,27.43-4.04c8.39-4.17,13.73-12.99,14.74-22.52l1.49,0.09c-0.05,5-1.31,10.05-3.8,14.55
	c-2.51,4.49-6.34,8.23-10.79,10.8c-8.98,5.19-19.64,6.13-29.55,4.87c-9.97-1.37-19.58-4.87-28.09-10.05
	c-8.57-5.12-16.06-11.91-22.09-19.72L257.85,879.72 M411.59,1028.72l-2.86-0.2c2.75-38.45-0.04-85.72-8.27-140.47l2.84-0.43
	C411.56,942.59,414.35,990.06,411.59,1028.72 M668.14,1192.32H526.09v-28.03h142.05V1192.32"/>
    <path class="st10" d="M914.02,1192.32H628.65l131.22-250.97h285.38L914.02,1192.32"/>
    <path class="st8" d="M289.29,608.52c-33.44-32.97-96.51-19.12-95.55,36.31c-68.79,18.15-72.62,93.64-44.91,132.33l23.89,1.91
	l5.26-28.19l13.86,28.67l66.88,4.31L289.29,608.52"/>
    <path class="st2" d="M345.18,731.78v105.29c0,0.96-0.04,1.88-0.11,2.79c-1.64,21.68-22.63,37-44.07,31.47
	c-31.61-8.19-53.58-36.77-53.32-69.41l0.53-70.13L345.18,731.78"/>
    <path class="st8"
          d="M345.18,777.3v59.77c0,0.96-0.04,1.88-0.11,2.79c-28.17-4.61-60.73-37.23-68.68-72.72L345.18,777.3"/>
    <path class="st2" d="M402.17,739.58c-1.45,8.37-3.4,16.93-6,25.07c-8.41,26.72-23.51,48.88-50.53,45.03
	c-63.52-9.09-98.88-74.53-98.88-74.53l43.46-49.68l29.16-39.21L406.79,684C406.79,684,407.25,710.72,402.17,739.58"/>
    <path class="st8" d="M265.56,718.4c27.88-0.89,49.44-15.09,58.6-55.43c0,0,64.97,56.07,96.82,26.12
	c26.67-25.07-18.58-82.75-93.47-89.63c-27.28-2.49-54.48,6.01-75.86,23.15c-36.3,29.09-39.77,96.73-5.85,120.15L265.56,718.4"/>
    <path class="st8" d="M-186.34-151.98"/>
    <path class="st2" d="M277.38,714.79c5.39,13.47,0.73,28-10.42,32.45c-11.14,4.47-24.55-2.84-29.94-16.31
	c-5.39-13.47-0.72-28,10.42-32.45C258.59,694.02,271.99,701.32,277.38,714.79"/>
    <path class="st8" d="M257.2,737.3c0.48-4.65,0.51-9.07-0.85-13.12c-1.32-4.07-3.9-7.6-6.87-11.25l0.94-1.16
	c4.32,2.25,7.99,6.28,9.55,11.25c1.57,4.97,0.89,10.39-1.34,14.71L257.2,737.3 M361.6,723.2c0,3.95-2.89,7.15-6.46,7.15
	c-3.56,0-6.46-3.2-6.46-7.15c0-3.95,2.89-7.15,6.46-7.15C358.71,716.06,361.6,719.26,361.6,723.2 M395.49,728.83
	c-0.43,3.48-3.33,6-6.48,5.6c-3.15-0.39-5.36-3.52-4.93-7.01c0.43-3.48,3.33-5.99,6.48-5.6
	C393.72,722.2,395.92,725.34,395.49,728.83 M361.27,705.27c0.26,3.33-5.08,3.65-12.95,3.89c-7.87,0.23-13.3,2.67-13.37,0.55
	c-0.06-2.11,5.76-7.53,13.52-8.84C356.48,699.51,360.96,701.3,361.27,705.27 M386.41,708.48c-0.58,3.29,3.35,4.13,9.16,5.16
	c5.82,1.01,9.57,3.97,9.86,1.88c0.29-2.09-3.4-8.05-9.01-10.13C390.63,703.24,387.1,704.56,386.41,708.48 M377.05,734.76
	c1.49,1.83,3.15,3.4,4.85,5.03l2.58,2.4c0.89,0.8,1.86,1.69,2.72,3.04c0.42,0.68,0.76,1.56,0.82,2.55c0.08,1-0.24,1.96-0.64,2.71
	c-0.89,1.48-1.94,2.35-3.08,3.12c-2.28,1.49-4.76,2.12-7.15,2.59l-0.56-1.39c2.05-1.33,4.1-2.52,5.7-3.89
	c0.76-0.68,1.51-1.51,1.78-2.15c0.3-0.63,0.21-0.84-0.14-1.59c-0.85-1.4-3.01-3.25-4.43-5.19c-1.55-1.92-2.94-4.11-3.75-6.51
	L377.05,734.76 M344.7,758.28c3.91,4.47,7.97,8.59,12.86,11.2c4.86,2.69,10.39,3.45,16.25,2.81l0.4,1.44
	c-2.83,1.27-6.02,1.93-9.24,1.75c-3.22-0.13-6.41-1.11-9.22-2.65c-5.64-3.13-9.8-8.2-12.31-13.73L344.7,758.28 M-186.34-151.98"/>
    <path class="st3" d="M222.24,926.06l-91.09,43.32l28.57,67.72l95.51-44.04L222.24,926.06"/>
    <path class="st11"
          d="M559.66,1160.94c-2.53-1.27-4.11-2.12-4.11-2.12l0.91-1.8c0,0,1.68,0.81,4.12,2.12L559.66,1160.94"/>
    <path class="st2" d="M597.44,1170.35c-2.94,5.81-25.49-4.47-36-9.63c8.14,4.51,22.17,13.37,15.94,18.23
	c-5.01,3.87-16.09-4.36-52.4-19.41c5.5,2.6,37.95,18.04,29.77,23.88c-8.91,6.35-47.12-7.64-47.12-7.64l-33.14,17.81h-38.22
	l-137.52,0.88c-8.64,0.04-17.2-1.07-25.49-3.21c-16.32-4.16-31.68-12.27-44.72-23.16c-8.22-6.88-15.29-14.95-21.21-23.81
	c-4.43-6.65-8.22-13.8-11.35-21.25l-36.27-85.91l95.51-44.08l49.84,101.17l164.35,35.69l45.86-11.47c9.86-2.48,23.81,1.69,32.49,7
	C568.92,1138.4,600.19,1164.8,597.44,1170.35"/>
    <path class="st2" d="M-186.34-151.98"/>
    <path class="st2" d="M-186.34-151.98"/>
    <path class="st8" d="M160.3,1038.42l-1.2-2.6l94.25-43.48l-39.26-91.87l2.64-1.13l40.35,94.43L160.3,1038.42 M173.78,1871.38h-5
	v-430.61h5V1871.38"/>
    <path class="st0" d="M291.68,1459.87H50.89c-16.36,0-29.62-13.27-29.62-29.63s13.26-29.61,29.62-29.61h240.79
	c16.36,0,29.62,13.25,29.62,29.61S308.03,1459.87,291.68,1459.87 M272.57,1899.4H70v-4.89c0-24.6,19.94-44.55,44.54-44.55h113.49
	c24.6,0,44.54,19.95,44.54,44.55V1899.4"/>
    <path class="st8" d="M885.16,1897.79L458.37,1221.3l4.23-2.67l426.79,676.49L885.16,1897.79"/>
    <path class="st8" d="M462.59,1897.79l-4.23-2.67l426.79-676.49l4.23,2.67L462.59,1897.79"/>
    <path class="st0" d="M1047.8,1248.72H299.96v-56.4h747.84V1248.72"/>
    <path class="st0" d="M638.37,198.23c0,93.91-76.13,170.04-170.04,170.04c-93.91,0-170.05-76.13-170.05-170.04
	c0-93.92,76.13-170.05,170.05-170.05C562.24,28.18,638.37,104.31,638.37,198.23"/>
    <path class="st6" d="M468.39,201.44l-94.27-73.89l3.09-3.93L468.27,195l50.78-43l3.23,3.81L468.39,201.44"/>
    <path class="st6" d="M113.17,398.95H26.83c-13.89,0-25.16,11.27-25.16,25.16v86.35c0,13.89,11.26,25.16,25.16,25.16h61.62
	L115,572.28v-36.76c13.04-0.93,23.33-11.79,23.33-25.07v-86.35C138.33,410.21,127.07,398.95,113.17,398.95"/>
    <path class="st0" d="M113.17,397.28H26.83C12.03,397.28,0,409.32,0,424.11v86.35c0,14.79,12.03,26.83,26.83,26.83H87.6l29.07,40.15
	v-40.4c13.2-1.73,23.33-13.11,23.33-26.57v-86.35C140,409.32,127.97,397.28,113.17,397.28z"/>
    <path class="st6" d="M68.23,511.72l-34.56-49.93l8.22-5.69l25.44,36.75l38.31-68.56l8.73,4.88L68.23,511.72"/>
    <path class="st8" d="M1930.25,1899.4H21.27v-5h1908.98V1899.4"/>
    <g>
	<path class="st0" d="M1723.31,1654.6h-425.53c-27.17,0-49.21-22.04-49.21-49.23v-272.08c0-27.19,22.04-49.21,49.21-49.21h425.53
		c27.19,0,49.21,22.03,49.21,49.21v272.08C1772.52,1632.56,1750.5,1654.6,1723.31,1654.6"/>
        <g>
		<path class="st6" d="M1352.71,1606.83L1352.71,1606.83c-14.13,0-25.59-11.46-25.59-25.59v-107.17c0-14.13,11.46-25.59,25.59-25.59
			l0,0c14.13,0,25.59,11.46,25.59,25.59v107.17C1378.3,1595.38,1366.84,1606.83,1352.71,1606.83z"/>
            <path class="st6" d="M1415.85,1606.83L1415.85,1606.83c-14.13,0-25.59-11.46-25.59-25.59v-74.31c0-14.13,11.46-25.59,25.59-25.59
			l0,0c14.13,0,25.59,11.46,25.59,25.59v74.31C1441.43,1595.38,1429.98,1606.83,1415.85,1606.83z"/>
            <path class="st6" d="M1478.98,1607.2L1478.98,1607.2c-14.13,0-25.59-11.46-25.59-25.59v-98.29c0-14.13,11.46-25.59,25.59-25.59h0
			c14.13,0,25.59,11.46,25.59,25.59v98.29C1504.56,1595.74,1493.11,1607.2,1478.98,1607.2z"/>
            <path class="st6" d="M1542.11,1604.42L1542.11,1604.42c-14.13,0-25.59-11.46-25.59-25.59v-35.49c0-14.13,11.46-25.59,25.59-25.59
			l0,0c14.13,0,25.59,11.46,25.59,25.59v35.49C1567.7,1592.97,1556.24,1604.42,1542.11,1604.42z"/>
            <path class="st6" d="M1605.24,1607.2L1605.24,1607.2c-14.13,0-25.59-11.46-25.59-25.59v-98.29c0-14.13,11.46-25.59,25.59-25.59
			l0,0c14.13,0,25.59,11.46,25.59,25.59v98.29C1630.83,1595.74,1619.37,1607.2,1605.24,1607.2z"/>
            <path class="st6" d="M1668.37,1607.2L1668.37,1607.2c-14.13,0-25.59-11.46-25.59-25.59v-128.02c0-14.13,11.46-25.59,25.59-25.59h0
			c14.13,0,25.59,11.46,25.59,25.59v128.02C1693.96,1595.74,1682.5,1607.2,1668.37,1607.2z"/>
	</g>
        <path class="st6" d="M1302.04,1347.14L1302.04,1347.14c0-14.13,11.46-25.59,25.59-25.59h365.84c14.13,0,25.59,11.46,25.59,25.59
		l0,0c0,14.13-11.46,25.59-25.59,25.59h-365.84C1313.49,1372.72,1302.04,1361.27,1302.04,1347.14z"/>
</g>
    <g>
	<path class="st10" d="M536.64,934.65c-0.11-1.65,1.14-3.09,2.79-3.2l0,0l0,0l0,0c1.65-0.11,3.08,1.14,3.2,2.79l0,0
		c0.11,1.66-1.14,3.09-2.8,3.2l0,0c-0.06,0-0.13,0.01-0.2,0.01l0,0C538.06,937.45,536.75,936.23,536.64,934.65z M509.4,937.13
		L509.4,937.13c-1.65-0.14-2.87-1.59-2.73-3.24l0,0c0.15-1.65,1.6-2.88,3.25-2.73l0,0c1.65,0.14,2.87,1.59,2.73,3.24l0,0
		c-0.13,1.57-1.44,2.75-2.98,2.75l0,0C509.58,937.15,509.49,937.14,509.4,937.13z M566.36,930.75c-0.37-1.61,0.63-3.22,2.25-3.59
		l0,0c1.61-0.37,3.22,0.63,3.59,2.25l0,0c0.37,1.61-0.63,3.22-2.25,3.59l0,0c-0.22,0.06-0.45,0.08-0.67,0.08l0,0
		C567.91,933.08,566.67,932.14,566.36,930.75z M479.38,932.24c-1.62-0.39-2.61-2.01-2.22-3.62l0,0c0.39-1.61,2.01-2.6,3.62-2.21l0,0
		c1.61,0.39,2.6,2.01,2.21,3.62l0,0c-0.33,1.37-1.56,2.3-2.91,2.3l0,0C479.85,932.33,479.61,932.3,479.38,932.24z M595.02,921.86
		c-0.64-1.53,0.08-3.29,1.6-3.93l0,0l0,0l0,0c1.53-0.64,3.29,0.08,3.93,1.61l0,0c0.64,1.52-0.08,3.28-1.6,3.92l0,0
		c-0.38,0.16-0.77,0.24-1.16,0.24l0,0C596.62,923.7,595.5,923.01,595.02,921.86z M621.99,908.72c-0.85-1.42-0.38-3.26,1.05-4.11l0,0
		c1.42-0.85,3.26-0.38,4.11,1.04l0,0c0.84,1.43,0.38,3.27-1.05,4.12l0,0c-0.48,0.28-1.01,0.42-1.53,0.42l0,0
		C623.55,910.19,622.55,909.67,621.99,908.72z M646.83,891.93c-1.04-1.29-0.85-3.18,0.44-4.22l0,0c1.28-1.05,3.17-0.86,4.22,0.43
		l0,0c1.04,1.29,0.85,3.17-0.43,4.22h-0.01c-0.55,0.45-1.22,0.67-1.89,0.67l0,0C648.29,893.03,647.43,892.66,646.83,891.93z
		 M668.87,871.61c-1.23-1.11-1.33-3-0.23-4.24l0,0c1.11-1.23,3.01-1.33,4.24-0.23l0,0c1.23,1.11,1.34,3.01,0.23,4.24l0,0
		c-0.59,0.66-1.41,1-2.23,1l0,0C670.16,872.38,669.45,872.12,668.87,871.61z M687.4,848.06c-1.4-0.89-1.81-2.75-0.92-4.14l0,0
		c0.9-1.4,2.75-1.81,4.15-0.92l0,0c1.39,0.89,1.8,2.75,0.91,4.14l0,0c-0.57,0.9-1.54,1.39-2.53,1.39l0,0
		C688.46,848.53,687.9,848.38,687.4,848.06z M701.9,821.82c-1.52-0.67-2.2-2.44-1.53-3.95l0,0c0.67-1.52,2.44-2.2,3.96-1.53l0,0
		c1.51,0.67,2.2,2.44,1.53,3.95l0,0c-0.5,1.12-1.6,1.79-2.75,1.79l0,0C702.71,822.08,702.29,822,701.9,821.82z M712.6,793.81
		c-1.59-0.47-2.49-2.14-2.02-3.73l0,0l0,0l0,0c0.48-1.59,2.15-2.49,3.74-2.02l0,0c1.59,0.47,2.49,2.14,2.02,3.73l0,0
		c-0.39,1.31-1.59,2.15-2.88,2.15l0,0C713.18,793.94,712.89,793.9,712.6,793.81z M697.53,785.79c-1.66-0.06-2.96-1.44-2.9-3.1l0,0
		c0.05-1.65,1.44-2.95,3.09-2.9l0,0c1.66,0.05,2.96,1.44,2.91,3.1l0,0c-0.06,1.62-1.39,2.9-3,2.9l0,0
		C697.6,785.79,697.56,785.79,697.53,785.79z M724.6,781.84c-0.19-1.65,0.99-3.14,2.64-3.32l0,0c1.64-0.19,3.13,0.99,3.32,2.63l0,0
		c0.19,1.65-0.99,3.14-2.64,3.33l0,0c-0.11,0.01-0.23,0.02-0.34,0.02l0,0C726.08,784.5,724.78,783.37,724.6,781.84z M667.22,781.96
		c-1.62-0.38-2.62-2-2.24-3.61l0,0c0.38-1.61,1.99-2.61,3.61-2.23l0,0c1.61,0.38,2.61,1.99,2.23,3.6l0,0
		c-0.32,1.38-1.56,2.32-2.92,2.32l0,0C667.68,782.04,667.45,782.01,667.22,781.96z M754.1,776.45c-0.48-1.58,0.41-3.26,1.99-3.74
		l0,0c0,0,0,0,0.01,0l0,0c1.58-0.48,3.26,0.42,3.74,2l0,0c0.48,1.59-0.42,3.26-2,3.74l0,0c-0.29,0.09-0.59,0.13-0.88,0.13l0,0
		C755.68,778.58,754.49,777.75,754.1,776.45z M638.51,770.87c-1.44-0.83-1.93-2.66-1.1-4.09l0,0c0.83-1.44,2.67-1.93,4.1-1.1l0,0
		l0,0l0,0c1.44,0.83,1.92,2.67,1.09,4.1l0,0c-0.55,0.96-1.56,1.5-2.59,1.5l0,0C639.5,771.28,638.98,771.15,638.51,770.87z
		 M782.04,765.62c-0.77-1.46-0.2-3.28,1.26-4.05l0,0c1.47-0.77,3.28-0.2,4.05,1.26l0,0c0.77,1.47,0.21,3.28-1.26,4.05l0,0
		c-0.45,0.24-0.92,0.35-1.39,0.35l0,0C783.62,767.23,782.58,766.64,782.04,765.62z M719.74,764.68c-1.63-0.27-2.74-1.81-2.47-3.45
		l0,0l0,0l0,0c0.27-1.63,1.82-2.74,3.45-2.47l0,0c1.64,0.27,2.74,1.82,2.47,3.45l0,0c-0.24,1.47-1.51,2.51-2.95,2.51l0,0
		C720.07,764.72,719.91,764.71,719.74,764.68z M615.12,750.59c-1.02-1.31-0.77-3.19,0.54-4.21l0,0c1.31-1.01,3.19-0.77,4.21,0.54
		l0,0c0,0,0,0-0.01,0l0,0c1.02,1.32,0.78,3.2-0.54,4.21l0,0c-0.54,0.43-1.19,0.63-1.83,0.63l0,0
		C616.6,751.76,615.71,751.36,615.12,750.59z M807.39,749.66c-1.05-1.29-0.85-3.18,0.43-4.22l0,0c1.29-1.05,3.18-0.85,4.23,0.43l0,0
		c1.04,1.29,0.84,3.18-0.44,4.22l0,0c-0.56,0.45-1.23,0.67-1.89,0.67l0,0C808.85,750.76,807.98,750.39,807.39,749.66z
		 M722.99,734.88c-1.65-0.03-2.97-1.4-2.94-3.06l0,0c0.03-1.65,1.39-2.97,3.05-2.94l0,0c1.66,0.03,2.98,1.39,2.95,3.05l0,0
		c-0.03,1.64-1.37,2.95-3,2.95l0,0C723.03,734.88,723.01,734.88,722.99,734.88z M827.85,727.91c-1.38-0.92-1.75-2.78-0.84-4.16l0,0
		c0.92-1.38,2.78-1.76,4.16-0.84l0,0c1.38,0.92,1.76,2.78,0.84,4.16l0,0c-0.58,0.87-1.53,1.34-2.5,1.34l0,0
		C828.94,728.41,828.36,728.25,827.85,727.91z M600.77,723.27L600.77,723.27c-0.53-1.57,0.31-3.27,1.88-3.81l0,0
		c1.57-0.53,3.27,0.31,3.81,1.88l0,0l0,0l0,0c0.53,1.57-0.31,3.27-1.88,3.81l0,0c-0.32,0.11-0.65,0.16-0.97,0.16l0,0
		C602.36,725.31,601.2,724.52,600.77,723.27z M1279.27,706.7c-0.08-1.66,1.19-3.06,2.85-3.14l0,0c1.65-0.08,3.06,1.2,3.14,2.85l0,0
		c0.08,1.66-1.2,3.06-2.85,3.14l0,0c-0.05,0-0.1,0.01-0.15,0.01l0,0C1280.67,709.56,1279.34,708.31,1279.27,706.7z M1252.08,709.29
		c-1.65-0.11-2.9-1.54-2.79-3.19l0,0c0.11-1.65,1.54-2.9,3.19-2.79l0,0c1.66,0.11,2.91,1.54,2.79,3.19l0,0
		c-0.1,1.59-1.42,2.8-2.98,2.8l0,0C1252.22,709.3,1252.15,709.3,1252.08,709.29z M1309.13,704.01c-0.25-1.64,0.88-3.17,2.52-3.41
		l0,0c1.64-0.25,3.16,0.88,3.41,2.52l0,0c0.25,1.63-0.88,3.16-2.52,3.41l0,0c-0.15,0.02-0.3,0.03-0.45,0.03l0,0
		C1310.63,706.56,1309.35,705.5,1309.13,704.01z M1221.98,705.39c-1.63-0.32-2.69-1.89-2.37-3.52l0,0c0.31-1.62,1.89-2.68,3.52-2.37
		l0,0c1.62,0.32,2.68,1.89,2.37,3.52l0,0c-0.28,1.43-1.54,2.43-2.94,2.43l0,0C1222.37,705.45,1222.17,705.43,1221.98,705.39z
		 M717.79,702.57c-0.3-1.63,0.77-3.2,2.4-3.5l0,0c1.63-0.31,3.19,0.76,3.5,2.39l0,0c0.31,1.63-0.76,3.2-2.39,3.5l0,0
		c-0.19,0.04-0.37,0.06-0.56,0.06l0,0C719.33,705.02,718.07,704.01,717.79,702.57z M843.72,702.41c-1.43-0.86-1.89-2.7-1.04-4.12
		l0,0c0.86-1.42,2.7-1.89,4.12-1.03l0,0c1.42,0.85,1.88,2.69,1.03,4.11l0,0c-0.56,0.94-1.56,1.46-2.58,1.46l0,0
		C844.73,702.83,844.2,702.69,843.72,702.41z M1338.6,698.46c-0.39-1.61,0.6-3.24,2.21-3.63l0,0l0,0l0,0
		c1.61-0.39,3.23,0.6,3.62,2.21l0,0c0.39,1.61-0.6,3.23-2.21,3.63v-0.01c-0.24,0.06-0.48,0.09-0.71,0.09l0,0
		C1340.16,700.75,1338.93,699.83,1338.6,698.46z M1192.62,697.7c-1.58-0.52-2.43-2.21-1.92-3.79l0,0c0.52-1.57,2.21-2.43,3.79-1.91
		l0,0c1.57,0.51,2.43,2.21,1.91,3.78l0,0c-0.41,1.27-1.59,2.07-2.85,2.07l0,0C1193.24,697.85,1192.93,697.8,1192.62,697.7z
		 M598.77,695.84c-1.65-0.06-2.95-1.44-2.9-3.1l0,0c0.05-1.65,1.44-2.95,3.1-2.9l0,0c1.65,0.05,2.95,1.44,2.9,3.09l0,0
		c-0.05,1.63-1.39,2.91-3,2.91l0,0C598.84,695.84,598.81,695.84,598.77,695.84z M1367.5,690.46c-0.51-1.57,0.35-3.27,1.93-3.78l0,0
		c1.57-0.51,3.27,0.35,3.78,1.93l0,0c0.51,1.57-0.35,3.26-1.93,3.78l0,0c-0.31,0.1-0.62,0.15-0.93,0.15l0,0
		C1369.09,692.54,1367.92,691.73,1367.5,690.46z M1164.4,686.69c-1.51-0.69-2.17-2.47-1.49-3.98l0,0c0.69-1.5,2.47-2.17,3.98-1.48
		l0,0c1.5,0.68,2.17,2.46,1.49,3.97l0,0c-0.51,1.1-1.6,1.76-2.74,1.76l0,0C1165.23,686.96,1164.8,686.87,1164.4,686.69z
		 M1395.76,680.41c-0.62-1.54,0.13-3.29,1.67-3.9l0,0l0,0l0,0c1.54-0.62,3.29,0.13,3.9,1.67l0,0c0.62,1.54-0.13,3.28-1.67,3.9l0,0
		c-0.37,0.15-0.74,0.21-1.11,0.21l0,0C1397.36,682.29,1396.23,681.58,1395.76,680.41z M859.44,676.81c-1.39-0.9-1.78-2.76-0.87-4.15
		l0,0l0,0l0,0c0.91-1.39,2.77-1.77,4.16-0.86l0,0c1.38,0.9,1.77,2.76,0.86,4.15l0,0c-0.58,0.88-1.53,1.36-2.51,1.36l0,0
		C860.51,677.31,859.94,677.15,859.44,676.81z M708.21,675.36c-0.83-1.43-0.34-3.27,1.09-4.1l0,0c1.44-0.83,3.27-0.33,4.1,1.1l0,0
		c0.83,1.43,0.34,3.27-1.09,4.1l0,0c-0.48,0.27-0.99,0.4-1.5,0.4l0,0C709.77,676.86,708.76,676.32,708.21,675.36z M1137.54,672.75
		c-1.44-0.83-1.92-2.67-1.09-4.1l0,0c0.83-1.43,2.67-1.92,4.1-1.09l0,0c1.43,0.83,1.92,2.67,1.09,4.1l0,0
		c-0.56,0.96-1.57,1.5-2.6,1.5l0,0C1138.53,673.16,1138.01,673.03,1137.54,672.75z M1423.34,668.62c-0.7-1.5-0.06-3.29,1.44-3.99
		l0,0c1.51-0.7,3.29-0.06,3.99,1.44l0,0c0.7,1.5,0.06,3.29-1.44,3.99l0,0c-0.41,0.19-0.85,0.29-1.27,0.29l0,0
		C1424.93,670.35,1423.85,669.71,1423.34,668.62z M606.01,667.09c-1.34-0.97-1.65-2.85-0.68-4.19l0,0c0.97-1.34,2.85-1.65,4.19-0.68
		l0,0c1.34,0.97,1.65,2.85,0.68,4.19l0,0l0,0l0,0c-0.59,0.81-1.51,1.25-2.44,1.25l0,0C607.15,667.66,606.54,667.47,606.01,667.09z
		 M1112.03,656.6c-1.37-0.93-1.73-2.79-0.8-4.16l0,0c0.93-1.38,2.79-1.73,4.16-0.8l0,0c1.38,0.92,1.74,2.79,0.81,4.16l0,0
		c-0.59,0.86-1.53,1.32-2.49,1.32l0,0C1113.13,657.12,1112.54,656.95,1112.03,656.6z M688.49,655.42c-1.44-0.82-1.95-2.65-1.14-4.09
		l0,0c0.82-1.44,2.65-1.95,4.09-1.13l0,0c1.44,0.81,1.95,2.64,1.14,4.09l0,0c-0.56,0.97-1.57,1.52-2.62,1.52l0,0
		C689.46,655.81,688.95,655.68,688.49,655.42z M876.71,652.26c-1.29-1.03-1.51-2.92-0.47-4.21l0,0l0,0l0,0
		c1.03-1.3,2.92-1.51,4.21-0.47l0,0c1.3,1.03,1.51,2.92,0.48,4.21l0,0c-0.6,0.74-1.47,1.13-2.35,1.13l0,0
		C877.92,652.92,877.26,652.71,876.71,652.26z M628.99,648.52c-0.54-1.56,0.3-3.27,1.87-3.8l0,0c1.56-0.54,3.27,0.3,3.8,1.86l0,0
		c0.54,1.57-0.3,3.28-1.86,3.81l0,0c-0.33,0.11-0.65,0.16-0.97,0.16l0,0C630.58,650.55,629.41,649.77,628.99,648.52z M661.16,647.26
		C661.16,647.26,661.16,647.26,661.16,647.26L661.16,647.26c-1.65-0.15-2.86-1.61-2.72-3.26l0,0c0.15-1.65,1.61-2.87,3.26-2.72l0,0
		c1.65,0.15,2.87,1.61,2.72,3.26l0,0c-0.14,1.56-1.45,2.73-2.99,2.73l0,0C661.34,647.27,661.25,647.27,661.16,647.26z
		 M1087.39,639.4h0.01c-1.36-0.95-1.68-2.82-0.73-4.18l0,0c0.95-1.35,2.82-1.68,4.18-0.72l0,0c1.35,0.95,1.68,2.82,0.72,4.18l0,0
		c-0.58,0.83-1.51,1.27-2.45,1.27l0,0C1088.52,639.95,1087.92,639.77,1087.39,639.4z M896.68,629.89c-1.13-1.21-1.06-3.11,0.16-4.24
		l0,0c1.21-1.12,3.11-1.05,4.24,0.16l0,0c1.12,1.22,1.05,3.12-0.16,4.24l0,0c-0.58,0.54-1.31,0.8-2.04,0.8l0,0
		C898.07,630.85,897.27,630.53,896.68,629.89z M1062.67,622.73c-1.41-0.88-1.83-2.73-0.95-4.14l0,0c0.88-1.4,2.73-1.83,4.13-0.95
		l0,0l0,0l0,0c1.41,0.88,1.83,2.73,0.96,4.13l0,0c-0.58,0.91-1.55,1.41-2.55,1.41l0,0C1063.71,623.18,1063.16,623.04,1062.67,622.73
		z M920.18,611.36c-0.84-1.42-0.37-3.26,1.05-4.11l0,0c1.43-0.84,3.27-0.37,4.11,1.05l0,0c0.85,1.43,0.38,3.27-1.05,4.11l0,0
		c-0.48,0.29-1,0.42-1.53,0.42l0,0C921.74,612.83,920.74,612.31,920.18,611.36z M1036.7,608.67L1036.7,608.67
		c-1.51-0.68-2.19-2.45-1.52-3.96l0,0c0.67-1.52,2.45-2.2,3.96-1.53l0,0c1.51,0.67,2.2,2.45,1.52,3.96l0,0
		c-0.49,1.12-1.59,1.79-2.74,1.79l0,0C1037.51,608.93,1037.1,608.84,1036.7,608.67z M947.3,598.83c-0.45-1.6,0.48-3.26,2.08-3.7l0,0
		c1.59-0.45,3.25,0.48,3.7,2.07l0,0c0.45,1.6-0.48,3.25-2.08,3.7l0,0c-0.27,0.08-0.54,0.11-0.81,0.11l0,0
		C948.88,601.01,947.67,600.15,947.3,598.83z M1008.89,599.57L1008.89,599.57c-1.62-0.34-2.66-1.93-2.33-3.55l0,0
		c0.35-1.62,1.94-2.66,3.56-2.32l0,0c1.62,0.34,2.66,1.93,2.32,3.55l0,0c-0.3,1.42-1.55,2.39-2.94,2.39l0,0
		C1009.3,599.64,1009.09,599.62,1008.89,599.57z M976.75,593.85c-0.02-1.66,1.3-3.02,2.96-3.04l0,0l0,0l0,0
		c1.65-0.03,3.02,1.3,3.04,2.96l0,0c0.02,1.65-1.3,3.01-2.96,3.04l0,0c-0.01,0-0.03,0-0.04,0l0,0
		C978.11,596.81,976.77,595.49,976.75,593.85z"/>
</g>
</svg>
