<svg xmlns="http://www.w3.org/2000/svg" viewBox="0 0 396.97 381.92" style="enable-background:new 0 0 396.97 381.92" xml:space="preserve"><linearGradient id="a" gradientUnits="userSpaceOnUse" x1="127.413" y1="340.343" x2="293.397" y2="52.85"><stop offset="0" style="stop-color:#2615ab"/><stop offset=".19" style="stop-color:#231bb0"/><stop offset=".453" style="stop-color:#1b2dbd"/><stop offset=".755" style="stop-color:#0d4ad4"/><stop offset=".994" style="stop-color:#0066e9"/></linearGradient><path style="fill:url(#a)" d="M213.4 32.38c-89.79 0-162.93 71.27-165.94 160.33-3.21 95.09 74.73 173.89 169.84 171.7 42.36-.98 80.79-17.82 109.6-44.81 1.28-1.2 1.61-3.09.78-4.63a3.82 3.82 0 0 0-4.76-1.76c-13.76 5.33-29.08 8.31-45.26 8.31-59.4 0-107.55-40.09-107.55-89.54s48.15-89.54 107.55-89.54c47.09 0 87.11 25.2 101.67 60.29.01.02.04.02.04-.01.04-1.43.06-2.86.06-4.3.01-91.7-74.33-166.04-166.03-166.04z"/><linearGradient id="b" gradientUnits="userSpaceOnUse" x1="71.215" y1="246.708" x2="343.239" y2="89.655"><stop offset="0" style="stop-color:#0ad8e9"/><stop offset=".994" style="stop-color:#0066e9"/></linearGradient><path style="fill:url(#b)" d="M379.41 199.4C378.13 98.7 296.12 17.47 195.13 17.47c-84.52 0-155.73 56.9-177.47 134.47-.46 1.63.39 3.34 1.95 4 1.55.66 3.35.07 4.21-1.38 16.09-26.92 45.51-44.94 79.15-44.94 50.9 0 92.16 41.26 92.16 92.16s41.26 92.16 92.16 92.16c50.1 0 90.86-39.98 92.13-89.78.01-.79.03-1.58.03-2.38-.01-.8-.03-1.59-.04-2.38z"/><linearGradient id="c" gradientUnits="userSpaceOnUse" x1="224.499" y1="381.693" x2="378.782" y2="470.769" gradientTransform="matrix(1 0 0 -1 0 659.048)"><stop offset="0" style="stop-color:#86d8e9"/><stop offset=".994" style="stop-color:#0066e9"/></linearGradient><path style="fill:url(#c)" d="M379.42 202.97c-.64 50.35-41.64 90.97-92.14 90.97-42.26 0-77.87-28.45-88.73-67.24-.23-.81.19-1.67.97-2 .78-.33 1.67-.03 2.11.69 8.04 13.46 22.76 22.47 39.58 22.47 25.45 0 46.08-20.63 46.08-46.08s20.63-46.08 46.08-46.08c25.05 0 45.43 19.99 46.06 44.89.01.4.02.79.02 1.19l-.03 1.19z"/><path style="fill:#4bc6fe" d="M-2393.06 158.11c.35-.07.7-.14 1.05-.2-.21.2-.43.4-.64.6-.13-.13-.27-.26-.41-.4z"/></svg>